<?xml version="1.0" encoding="UTF-8" standalone="no"?>
<svg
   xmlns:dc="http://purl.org/dc/elements/1.1/"
   xmlns:cc="http://creativecommons.org/ns#"
   xmlns:rdf="http://www.w3.org/1999/02/22-rdf-syntax-ns#"
   xmlns:svg="http://www.w3.org/2000/svg"
   xmlns="http://www.w3.org/2000/svg"
   xmlns:sodipodi="http://sodipodi.sourceforge.net/DTD/sodipodi-0.dtd"
   xmlns:inkscape="http://www.inkscape.org/namespaces/inkscape"
   width="20"
   height="20"
   viewBox="0 0 20 20"
   fill="none"
   version="1.1"
   id="svg837"
   sodipodi:docname="check-circle.svg"
   inkscape:export-filename="/Users/robertpkoenig/Documents/projects/diss/ochem/public/assets/check-circle.png"
   inkscape:export-xdpi="360"
   inkscape:export-ydpi="360"
   inkscape:version="1.0.1 (c497b03c, 2020-09-10)">
  <style
     id="style845"></style>
  <metadata
     id="metadata843">
    <rdf:RDF>
      <cc:Work
         rdf:about="">
        <dc:format>image/svg+xml</dc:format>
        <dc:type
           rdf:resource="http://purl.org/dc/dcmitype/StillImage" />
      </cc:Work>
    </rdf:RDF>
  </metadata>
  <defs
     id="defs841" />
  <sodipodi:namedview
     pagecolor="#ffffff"
     bordercolor="#666666"
     borderopacity="1"
     objecttolerance="10"
     gridtolerance="10"
     guidetolerance="10"
     inkscape:pageopacity="0"
     inkscape:pageshadow="2"
     inkscape:window-width="1440"
     inkscape:window-height="872"
     id="namedview839"
     showgrid="false"
     inkscape:zoom="15.45"
     inkscape:cx="10"
     inkscape:cy="10"
     inkscape:window-x="0"
     inkscape:window-y="28"
     inkscape:window-maximized="0"
     inkscape:current-layer="svg837" />
  <ellipse
     style="font-variation-settings:'wght' 600;fill:#ffffff;stroke-width:75.5906;stroke-linecap:round;stroke-linejoin:round"
     id="path847"
     cx="10.355988"
     cy="9.8058252"
     rx="5.5016179"
     ry="5.2750807" />
  <path
     fill-rule="evenodd"
     clip-rule="evenodd"
     d="M10 18C14.4183 18 18 14.4183 18 10C18 5.58172 14.4183 2 10 2C5.58172 2 2 5.58172 2 10C2 14.4183 5.58172 18 10 18ZM13.7071 8.70711C14.0976 8.31658 14.0976 7.68342 13.7071 7.29289C13.3166 6.90237 12.6834 6.90237 12.2929 7.29289L9 10.5858L7.70711 9.29289C7.31658 8.90237 6.68342 8.90237 6.29289 9.29289C5.90237 9.68342 5.90237 10.3166 6.29289 10.7071L8.29289 12.7071C8.68342 13.0976 9.31658 13.0976 9.70711 12.7071L13.7071 8.70711Z"
     fill="#16A14A"
     id="path835" />
</svg>
