<?xml version="1.0" encoding="UTF-8" standalone="no"?>
<svg
   xmlns:dc="http://purl.org/dc/elements/1.1/"
   xmlns:cc="http://creativecommons.org/ns#"
   xmlns:rdf="http://www.w3.org/1999/02/22-rdf-syntax-ns#"
   xmlns:svg="http://www.w3.org/2000/svg"
   xmlns="http://www.w3.org/2000/svg"
   xmlns:sodipodi="http://sodipodi.sourceforge.net/DTD/sodipodi-0.dtd"
   xmlns:inkscape="http://www.inkscape.org/namespaces/inkscape"
   width="100"
   height="100"
   viewBox="0 0 26.458333 26.458334"
   version="1.1"
   id="svg8"
   inkscape:version="1.0.1 (c497b03c, 2020-09-10)"
   sodipodi:docname="logo.svg">
  <style
     id="style833"></style>
  <defs
     id="defs2" />
  <sodipodi:namedview
     id="base"
     pagecolor="#ffffff"
     bordercolor="#666666"
     borderopacity="1.0"
     inkscape:pageopacity="0.0"
     inkscape:pageshadow="2"
     inkscape:zoom="2.8"
     inkscape:cx="35"
     inkscape:cy="62.142857"
     inkscape:document-units="mm"
     inkscape:current-layer="text928"
     inkscape:document-rotation="0"
     showgrid="false"
     units="px"
     inkscape:window-width="1416"
     inkscape:window-height="999"
     inkscape:window-x="0"
     inkscape:window-y="25"
     inkscape:window-maximized="0" />
  <metadata
     id="metadata5">
    <rdf:RDF>
      <cc:Work
         rdf:about="">
        <dc:format>image/svg+xml</dc:format>
        <dc:type
           rdf:resource="http://purl.org/dc/dcmitype/StillImage" />
        <dc:title />
      </cc:Work>
    </rdf:RDF>
  </metadata>
  <g
     inkscape:label="Layer 1"
     inkscape:groupmode="layer"
     id="layer1">
    <g
       id="g933"
       transform="matrix(1.0453758,0,0,1.0453758,-0.6002842,-0.60028397)">
      <path
         d="m 0.57422804,13.229166 c 0,-10.6301481 2.02479046,-12.65493792 12.65493896,-12.65493792 10.630149,0 12.654939,2.02478982 12.654939,12.65493792 0,10.630149 -2.02479,12.654939 -12.654939,12.654939 -10.6301485,0 -12.65493896,-2.02479 -12.65493896,-12.654939"
         fill="#4F46E5"
         id="path889"
         style="stroke-width:0.126549" />
      <g
         aria-label="O"
         id="text928"
         style="font-style:normal;font-weight:normal;font-size:20.32px;line-height:1.25;font-family:sans-serif;fill:#ffffff;fill-opacity:1;stroke:none;stroke-width:0.238125">
        <path
           d="m 13.249479,20.534213 q -2.01168,0 -3.6982404,-0.934719 -1.66624,-0.93472 -2.66192,-2.60096 -0.9753599,-1.68656 -0.9753599,-3.77952 0,-2.09296 0.9753599,-3.7592003 0.99568,-1.66624 2.66192,-2.60096 1.6865604,-0.93472 3.6982404,-0.93472 2.01168,0 3.677919,0.93472 1.68656,0.93472 2.6416,2.60096 0.97536,1.6662403 0.97536,3.7592003 0,2.09296 -0.97536,3.77952 -0.97536,1.66624 -2.6416,2.60096 -1.666239,0.934719 -3.677919,0.934719 z m 0,-3.169919 q 1.70688,0 2.72288,-1.13792 1.036319,-1.13792 1.036319,-3.00736 0,-1.88976 -1.036319,-3.00736 -1.016,-1.1379203 -2.72288,-1.1379203 -1.7272,0 -2.76352,1.1176003 -1.0160004,1.1176 -1.0160004,3.02768 0,1.88976 1.0160004,3.02768 1.03632,1.1176 2.76352,1.1176 z"
           style="font-style:normal;font-variant:normal;font-weight:bold;font-stretch:normal;font-size:20.32px;font-family:Poppins;-inkscape-font-specification:'Poppins Bold';fill:#ffffff;fill-opacity:1;stroke-width:0.238125"
           id="path891" />
      </g>
    </g>
  </g>
</svg>
