<?xml version="1.0" encoding="UTF-8" standalone="no"?>
<svg
   xmlns:dc="http://purl.org/dc/elements/1.1/"
   xmlns:cc="http://creativecommons.org/ns#"
   xmlns:rdf="http://www.w3.org/1999/02/22-rdf-syntax-ns#"
   xmlns:svg="http://www.w3.org/2000/svg"
   xmlns="http://www.w3.org/2000/svg"
   xmlns:sodipodi="http://sodipodi.sourceforge.net/DTD/sodipodi-0.dtd"
   xmlns:inkscape="http://www.inkscape.org/namespaces/inkscape"
   width="20"
   height="20"
   viewBox="0 0 20 20"
   fill="none"
   version="1.1"
   id="svg851"
   sodipodi:docname="xmark.svg"
   inkscape:export-filename="/Users/robertpkoenig/Documents/projects/diss/ochem/public/assets/xmark.png"
   inkscape:export-xdpi="360"
   inkscape:export-ydpi="360"
   inkscape:version="1.0.1 (c497b03c, 2020-09-10)">
  <style
     id="style1420"></style>
  <metadata
     id="metadata857">
    <rdf:RDF>
      <cc:Work
         rdf:about="">
        <dc:format>image/svg+xml</dc:format>
        <dc:type
           rdf:resource="http://purl.org/dc/dcmitype/StillImage" />
      </cc:Work>
    </rdf:RDF>
  </metadata>
  <defs
     id="defs855" />
  <sodipodi:namedview
     pagecolor="#ffffff"
     bordercolor="#666666"
     borderopacity="1"
     objecttolerance="10"
     gridtolerance="10"
     guidetolerance="10"
     inkscape:pageopacity="0"
     inkscape:pageshadow="2"
     inkscape:window-width="1440"
     inkscape:window-height="803"
     id="namedview853"
     showgrid="false"
     inkscape:zoom="17.725"
     inkscape:cx="10"
     inkscape:cy="10"
     inkscape:window-x="0"
     inkscape:window-y="25"
     inkscape:window-maximized="0"
     inkscape:current-layer="svg851" />
  <ellipse
     style="font-variation-settings:'wght' 600;fill:#ffffff;stroke-width:75.5906;stroke-linecap:round;stroke-linejoin:round"
     id="path1422"
     cx="10.042314"
     cy="9.901269"
     rx="5.416079"
     ry="5.2186179" />
  <path
     fill-rule="evenodd"
     clip-rule="evenodd"
     d="M10 18C14.4183 18 18 14.4183 18 10C18 5.58172 14.4183 2 10 2C5.58172 2 2 5.58172 2 10C2 14.4183 5.58172 18 10 18ZM8.70711 7.29289C8.31658 6.90237 7.68342 6.90237 7.29289 7.29289C6.90237 7.68342 6.90237 8.31658 7.29289 8.70711L8.58579 10L7.29289 11.2929C6.90237 11.6834 6.90237 12.3166 7.29289 12.7071C7.68342 13.0976 8.31658 13.0976 8.70711 12.7071L10 11.4142L11.2929 12.7071C11.6834 13.0976 12.3166 13.0976 12.7071 12.7071C13.0976 12.3166 13.0976 11.6834 12.7071 11.2929L11.4142 10L12.7071 8.70711C13.0976 8.31658 13.0976 7.68342 12.7071 7.29289C12.3166 6.90237 11.6834 6.90237 11.2929 7.29289L10 8.58579L8.70711 7.29289Z"
     fill="#DC2626"
     id="path849" />
</svg>
